# xmcd
#
# Track frame offsets:
#	150
#	14141
#	26121
#	38608
#	52846
#	65001
#	78134
#	91808
#	105486
#	118039
#	132811
#	144872
#
# Disc length: 2112
#
# Revision: 2
# Processed by: cddbd v1.5.1PL0 Copyright (c) Steve Scherf et al.
# Submitted via: cdripper 1,0,15,908
# Normalized: r0:TRMNUM;r1:TDELIM( - )
#
DISCID=92083e0c
DTITLE=Various Artits - Blues Chicago Style Volume 1
DYEAR=2004
DGENRE=Blues
TTITLE0=Muddy Waters - Rollin' Stone - 1950
TTITLE1=Muddy Waters - Long Distance Call - 1951
TTITLE2=Little Walter - Juke - 1952
TTITLE3=Little Walter - Sad Hours - 1952
TTITLE4=Howlin' Wolf -How Many More Years - 1951
TTITLE5=Howlin' Wolf - Moanin' At Midnight - 1951
TTITLE6=Memphis Minnie - Me And My Chauffeur Blues - 1941
TTITLE7=Robert Nighthawk - Sweet Black Angel - 1949
TTITLE8=Jimmy Rogers - That's Alright - 1950
TTITLE9=Jimmy Rogers - Chance to Love - 1951
TTITLE10=Eddie Boyd - Five Long Years - 1952
TTITLE11=Eddie Boyd - Cool Kind Treatment - 1952
EXTD=YEAR: 2004
EXTT0=
EXTT1=
EXTT2=
EXTT3=
EXTT4=
EXTT5=
EXTT6=
EXTT7=
EXTT8=
EXTT9=
EXTT10=
EXTT11=
PLAYORDER=
